<svg xmlns="http://www.w3.org/2000/svg" viewBox="0 0 965 201.01"><defs><style>.\37 4d2d942-9cef-4b2c-a855-9fc3cc3c03ed{fill:#913d55;}.\39 6790371-a358-4eb1-b003-4de539d3eecb{fill:#7d334e;}.\30 7f6f638-c49f-43ea-b000-164c94a2d2cc{fill:none;stroke:#b78190;stroke-miterlimit:10;}</style></defs><title>Background</title><g id="cd0e54ce-b3b9-4854-83dc-2e5b0692eb3e" data-name="Layer 2"><g id="f8d8a44a-70ea-442b-930e-8ae64b4df5e8" data-name="Layer 1"><rect class="74d2d942-9cef-4b2c-a855-9fc3cc3c03ed" y="0.01" width="965" height="201"/><polygon class="96790371-a358-4eb1-b003-4de539d3eecb" points="2 125.83 2 134.15 3.67 132.49 38.67 167.48 42.84 163.32 3.67 124.17 2 125.83"/><polygon class="96790371-a358-4eb1-b003-4de539d3eecb" points="2 142.88 2 151.21 3.7 149.52 30.19 176.01 34.35 171.84 3.69 141.2 2 142.88"/><polygon class="96790371-a358-4eb1-b003-4de539d3eecb" points="2 160.56 2 168.88 3.72 167.17 21.31 184.75 25.48 180.59 3.72 158.85 2 160.56"/><polygon class="96790371-a358-4eb1-b003-4de539d3eecb" points="2 178.04 2 186.37 3.75 184.63 12.59 193.46 16.75 189.3 3.75 176.3 2 178.04"/><polygon class="96790371-a358-4eb1-b003-4de539d3eecb" points="2 32.68 2 41.01 3.67 39.35 38.67 74.34 42.84 70.18 3.67 31.02 2 32.68"/><polygon class="96790371-a358-4eb1-b003-4de539d3eecb" points="2 49.74 2 58.06 3.7 56.38 30.19 82.87 34.35 78.71 3.69 48.06 2 49.74"/><polygon class="96790371-a358-4eb1-b003-4de539d3eecb" points="2 67.42 2 75.74 3.72 74.03 21.31 91.61 25.48 87.45 3.72 65.71 2 67.42"/><polygon class="96790371-a358-4eb1-b003-4de539d3eecb" points="2 84.9 2 93.23 3.75 91.49 12.59 100.32 16.75 96.16 3.75 83.17 2 84.9"/><polygon class="96790371-a358-4eb1-b003-4de539d3eecb" points="180.93 121 145.94 86.01 111.16 120.78 107 116.62 145.94 77.69 185.09 116.84 180.93 121"/><polygon class="96790371-a358-4eb1-b003-4de539d3eecb" points="172.45 129.53 145.96 103.04 119.64 129.36 115.48 125.2 145.96 94.72 176.61 125.37 172.45 129.53"/><polygon class="96790371-a358-4eb1-b003-4de539d3eecb" points="163.57 138.28 145.99 120.69 128.51 138.16 124.36 134 145.99 112.37 167.73 134.12 163.57 138.28"/><polygon class="96790371-a358-4eb1-b003-4de539d3eecb" points="154.84 146.98 146.01 138.15 137.25 146.92 133.08 142.75 146.01 129.82 159 142.82 154.84 146.98"/><polygon class="96790371-a358-4eb1-b003-4de539d3eecb" points="133.78 168.82 98.79 133.82 64.01 168.6 59.85 164.44 98.79 125.5 137.94 164.66 133.78 168.82"/><polygon class="96790371-a358-4eb1-b003-4de539d3eecb" points="125.3 177.34 98.81 150.86 72.49 177.18 68.33 173.02 98.81 142.54 129.46 173.19 125.3 177.34"/><polygon class="96790371-a358-4eb1-b003-4de539d3eecb" points="116.42 186.09 98.84 168.51 81.37 185.98 77.21 181.82 98.84 160.18 120.58 181.93 116.42 186.09"/><polygon class="96790371-a358-4eb1-b003-4de539d3eecb" points="107.69 194.8 98.86 185.97 90.1 194.73 85.94 190.57 98.86 177.64 111.85 190.64 107.69 194.8"/><polygon class="96790371-a358-4eb1-b003-4de539d3eecb" points="86.53 121 51.53 86.01 16.75 120.78 12.59 116.62 51.53 77.69 90.68 116.84 86.53 121"/><polygon class="96790371-a358-4eb1-b003-4de539d3eecb" points="78.04 129.53 51.55 103.04 25.23 129.36 21.07 125.2 51.55 94.72 82.2 125.37 78.04 129.53"/><polygon class="96790371-a358-4eb1-b003-4de539d3eecb" points="69.17 138.28 51.58 120.69 34.11 138.16 29.95 134 51.58 112.37 73.33 134.12 69.17 138.28"/><polygon class="96790371-a358-4eb1-b003-4de539d3eecb" points="60.44 146.98 51.6 138.15 42.84 146.92 38.68 142.75 51.6 129.82 64.6 142.82 60.44 146.98"/><path class="96790371-a358-4eb1-b003-4de539d3eecb" d="M129.78,0,107,22.86,111.16,27,138.1,0Zm24,0,27.16,27.23L185.09,23l-23-23Z"/><polygon class="96790371-a358-4eb1-b003-4de539d3eecb" points="172.45 35.83 145.96 9.34 119.64 35.66 115.48 31.5 145.96 1.02 176.61 31.67 172.45 35.83"/><polygon class="96790371-a358-4eb1-b003-4de539d3eecb" points="163.57 44.58 145.99 26.99 128.51 44.46 124.36 40.3 145.99 18.67 167.73 40.42 163.57 44.58"/><polygon class="96790371-a358-4eb1-b003-4de539d3eecb" points="154.84 53.28 146.01 44.45 137.25 53.22 133.08 49.05 146.01 36.13 159 49.12 154.84 53.28"/><path class="96790371-a358-4eb1-b003-4de539d3eecb" d="M223.78,0,201,22.86,205.16,27,232.1,0Zm24,0,27.16,27.23L279.09,23l-23-23Z"/><polygon class="96790371-a358-4eb1-b003-4de539d3eecb" points="266.45 35.83 239.96 9.34 213.64 35.66 209.48 31.5 239.96 1.02 270.61 31.67 266.45 35.83"/><polygon class="96790371-a358-4eb1-b003-4de539d3eecb" points="257.57 44.58 239.99 26.99 222.51 44.46 218.35 40.3 239.99 18.67 261.73 40.42 257.57 44.58"/><polygon class="96790371-a358-4eb1-b003-4de539d3eecb" points="248.84 53.28 240.01 44.45 231.25 53.22 227.08 49.05 240.01 36.13 253 49.12 248.84 53.28"/><polygon class="96790371-a358-4eb1-b003-4de539d3eecb" points="228.19 75.12 193.19 40.13 158.42 74.9 154.26 70.74 193.19 31.8 232.35 70.96 228.19 75.12"/><polygon class="96790371-a358-4eb1-b003-4de539d3eecb" points="219.71 83.65 193.22 57.16 166.9 83.48 162.74 79.32 193.22 48.84 223.87 79.49 219.71 83.65"/><polygon class="96790371-a358-4eb1-b003-4de539d3eecb" points="210.83 92.39 193.25 74.81 175.77 92.28 171.61 88.12 193.25 66.48 214.99 88.23 210.83 92.39"/><polygon class="96790371-a358-4eb1-b003-4de539d3eecb" points="202.1 101.1 193.27 92.27 184.5 101.03 180.34 96.87 193.27 83.94 206.26 96.94 202.1 101.1"/><polygon class="96790371-a358-4eb1-b003-4de539d3eecb" points="133.78 75.12 98.79 40.13 64.01 74.9 59.85 70.74 98.79 31.8 137.94 70.96 133.78 75.12"/><polygon class="96790371-a358-4eb1-b003-4de539d3eecb" points="125.3 83.65 98.81 57.16 72.49 83.48 68.33 79.32 98.81 48.84 129.46 79.49 125.3 83.65"/><polygon class="96790371-a358-4eb1-b003-4de539d3eecb" points="116.42 92.39 98.84 74.81 81.37 92.28 77.21 88.12 98.84 66.48 120.58 88.23 116.42 92.39"/><polygon class="96790371-a358-4eb1-b003-4de539d3eecb" points="107.69 101.1 98.86 92.27 90.1 101.03 85.94 96.87 98.86 83.94 111.85 96.94 107.69 101.1"/><path class="96790371-a358-4eb1-b003-4de539d3eecb" d="M35.37,0,12.59,22.86,16.75,27,43.69,0Zm24,0L86.53,27.24,90.69,23l-23-23Z"/><polygon class="96790371-a358-4eb1-b003-4de539d3eecb" points="78.04 35.83 51.55 9.34 25.23 35.66 21.07 31.5 51.55 1.02 82.2 31.67 78.04 35.83"/><polygon class="96790371-a358-4eb1-b003-4de539d3eecb" points="69.17 44.58 51.58 26.99 34.11 44.46 29.95 40.3 51.58 18.67 73.33 40.42 69.17 44.58"/><polygon class="96790371-a358-4eb1-b003-4de539d3eecb" points="60.44 53.28 51.6 44.45 42.84 53.22 38.68 49.05 51.6 36.13 64.6 49.12 60.44 53.28"/><polygon class="96790371-a358-4eb1-b003-4de539d3eecb" points="47.13 201.01 51.96 196.18 56.79 201.01 65.11 201.01 51.96 187.86 38.81 201.01 47.13 201.01"/><polygon class="96790371-a358-4eb1-b003-4de539d3eecb" points="30.07 201.01 51.94 179.15 73.8 201.01 82.12 201.01 51.94 170.82 21.75 201.01 30.07 201.01"/><polygon class="96790371-a358-4eb1-b003-4de539d3eecb" points="944.75 124 909.76 89.01 874.98 123.78 870.82 119.62 909.76 80.69 948.91 119.84 944.75 124"/><polygon class="96790371-a358-4eb1-b003-4de539d3eecb" points="936.27 132.53 909.78 106.04 883.46 132.36 879.3 128.2 909.78 97.72 940.43 128.37 936.27 132.53"/><polygon class="96790371-a358-4eb1-b003-4de539d3eecb" points="927.39 141.28 909.81 123.69 892.34 141.16 888.18 137 909.81 115.37 931.55 137.12 927.39 141.28"/><polygon class="96790371-a358-4eb1-b003-4de539d3eecb" points="918.66 149.98 909.83 141.15 901.07 149.92 896.9 145.75 909.83 132.82 922.82 145.82 918.66 149.98"/><polygon class="96790371-a358-4eb1-b003-4de539d3eecb" points="897.6 171.82 862.61 136.82 827.83 171.6 823.67 167.44 862.61 128.5 901.76 167.66 897.6 171.82"/><polygon class="96790371-a358-4eb1-b003-4de539d3eecb" points="889.12 180.34 862.63 153.86 836.31 180.18 832.15 176.02 862.63 145.54 893.28 176.19 889.12 180.34"/><polygon class="96790371-a358-4eb1-b003-4de539d3eecb" points="880.25 189.09 862.66 171.51 845.19 188.98 841.03 184.82 862.66 163.18 884.4 184.93 880.25 189.09"/><polygon class="96790371-a358-4eb1-b003-4de539d3eecb" points="871.52 197.8 862.68 188.97 853.92 197.73 849.76 193.57 862.68 180.64 875.67 193.64 871.52 197.8"/><polygon class="96790371-a358-4eb1-b003-4de539d3eecb" points="813.54 201.01 815.38 199.18 817.2 201.01 825.53 201.01 815.38 190.86 805.22 201.01 813.54 201.01"/><polygon class="96790371-a358-4eb1-b003-4de539d3eecb" points="796.49 201.01 815.35 182.15 834.21 201.01 842.53 201.01 815.35 173.82 788.16 201.01 796.49 201.01"/><polygon class="96790371-a358-4eb1-b003-4de539d3eecb" points="907.95 201.01 909.78 199.18 911.61 201.01 919.93 201.01 909.78 190.86 899.63 201.01 907.95 201.01"/><polygon class="96790371-a358-4eb1-b003-4de539d3eecb" points="890.9 201.01 909.76 182.15 928.62 201.01 936.94 201.01 909.76 173.82 882.57 201.01 890.9 201.01"/><polygon class="96790371-a358-4eb1-b003-4de539d3eecb" points="957.02 43.13 965 51.11 965 42.79 957.02 34.8 918.08 73.74 922.24 77.9 957.02 43.13"/><polygon class="96790371-a358-4eb1-b003-4de539d3eecb" points="957.09 95.27 965 103.18 965 94.86 957.09 86.94 944.16 99.87 948.33 104.03 957.09 95.27"/><polygon class="96790371-a358-4eb1-b003-4de539d3eecb" points="965 59.8 957.04 51.84 926.56 82.32 930.72 86.48 957.04 60.16 965 68.12 965 59.8"/><polygon class="96790371-a358-4eb1-b003-4de539d3eecb" points="957.07 77.81 965 85.74 965 77.42 957.07 69.48 935.43 91.12 939.59 95.28 957.07 77.81"/><polygon class="96790371-a358-4eb1-b003-4de539d3eecb" points="965 161.82 965 153.5 957.04 145.54 926.56 176.02 930.72 180.18 957.04 153.86 965 161.82"/><polygon class="96790371-a358-4eb1-b003-4de539d3eecb" points="965 144.81 965 136.49 957.02 128.5 918.08 167.44 922.24 171.6 957.02 136.82 965 144.81"/><polygon class="96790371-a358-4eb1-b003-4de539d3eecb" points="965 188.56 957.09 180.64 944.16 193.57 948.33 197.73 957.09 188.97 965 196.88 965 188.56"/><polygon class="96790371-a358-4eb1-b003-4de539d3eecb" points="965 179.44 965 171.12 957.07 163.18 935.43 184.82 939.59 188.97 957.07 171.51 965 179.44"/><polygon class="96790371-a358-4eb1-b003-4de539d3eecb" points="880.75 0 679.61 201.01 200.4 201.01 403.25 0.06 880.75 0"/><path class="07f6f638-c49f-43ea-b000-164c94a2d2cc" d="M903,97"/></g></g></svg>