<svg xmlns="http://www.w3.org/2000/svg" viewBox="0 0 11.65 11.65"><defs><style>.c447d086-752b-4f6d-b7ba-0e082b3c731e{fill:#fff;}</style></defs><title>calendar_ico</title><g id="6b62149e-bafc-46da-9c31-e2d574aeb9d0" data-name="Layer 2"><g id="2bc7be82-3f44-4e39-aaf3-04e747f7ef3a" data-name="Layer 1"><path class="c447d086-752b-4f6d-b7ba-0e082b3c731e" d="M10.49,1.17H9.32V0H8.16V1.17H3.5V0H2.33V1.17H1.17A1.17,1.17,0,0,0,0,2.33v8.16a1.17,1.17,0,0,0,1.17,1.17h9.32a1.17,1.17,0,0,0,1.17-1.17V2.33A1.17,1.17,0,0,0,10.49,1.17Zm0,9.32H1.17V4.66h9.32Zm0-7H1.17V2.33h9.32Z"/><rect class="c447d086-752b-4f6d-b7ba-0e082b3c731e" x="5.83" y="5.83" width="1.17" height="1.17"/><rect class="c447d086-752b-4f6d-b7ba-0e082b3c731e" x="8.16" y="5.83" width="1.17" height="1.17"/><rect class="c447d086-752b-4f6d-b7ba-0e082b3c731e" x="5.83" y="8.16" width="1.17" height="1.17"/><rect class="c447d086-752b-4f6d-b7ba-0e082b3c731e" x="3.5" y="8.16" width="1.17" height="1.17"/></g></g></svg>