<svg xmlns="http://www.w3.org/2000/svg" xmlns:xlink="http://www.w3.org/1999/xlink" viewBox="0 0 165.5 69.4"><defs><style>.\34 c00398b-5d46-47e3-a703-08729e91ed21{fill:none;}.\37 8830a6d-e42b-43af-9c75-57901edc28b1{clip-path:url(#42727680-62a4-44e7-a6c4-ebe69a82a514);}.fcc67d94-c35e-4108-922c-ecd94059c777{fill:#5bc094;}.\37 f86f087-df3f-4f5d-a527-cd157e00b15b{fill:#fff;}.\39 b592a83-e74a-4bc6-9a2c-b420b94b0e9d{clip-path:url(#eb71a5cb-0f42-4b12-841d-7fb6dbd06e3f);}.fb4e80cf-2c4b-4ed9-a273-b61245f4956e{fill:url(#1576a49f-d14a-4983-891a-0754b2c66f77);}</style><clipPath id="42727680-62a4-44e7-a6c4-ebe69a82a514"><path class="4c00398b-5d46-47e3-a703-08729e91ed21" d="M17.35,34.7A17.35,17.35,0,1,0,34.7,17.35,17.35,17.35,0,0,0,17.35,34.7"/></clipPath><clipPath id="eb71a5cb-0f42-4b12-841d-7fb6dbd06e3f"><path class="4c00398b-5d46-47e3-a703-08729e91ed21" d="M92.63,49.43h0a1.81,1.81,0,0,0,.1.37h0a.19.19,0,0,0,0-.39h0"/></clipPath><linearGradient id="1576a49f-d14a-4983-891a-0754b2c66f77" x1="377.66" y1="26.35" x2="378.66" y2="26.35" gradientTransform="matrix(0.27, 0, 0, -0.27, -8.86, 56.7)" gradientUnits="userSpaceOnUse"><stop offset="0" stop-color="#5bc095"/><stop offset="0.47" stop-color="#46b68d"/><stop offset="1" stop-color="#29a881"/></linearGradient></defs><title>Logo</title><g id="00868d48-2081-4c52-8841-a4c40e4e79a0" data-name="Layer 2"><g id="ef2c63d4-fe74-49cd-af46-c1020c9b7086" data-name="Layer 1"><g class="78830a6d-e42b-43af-9c75-57901edc28b1"><rect class="fcc67d94-c35e-4108-922c-ecd94059c777" x="10.16" y="10.16" width="49.08" height="49.08" transform="translate(-14.37 34.7) rotate(-45)"/></g><path class="7f86f087-df3f-4f5d-a527-cd157e00b15b" d="M37.77,46h-5.2V34.44h-7V29.25h7V25.71H43.79v5.21H34.24v1.86h3.53Zm-3.53-1.67H36.1v-9.9H34.24Zm-7-11.57h5.29V30.92H27.28Zm7-3.52h7.88V27.38H34.24Z"/><path class="7f86f087-df3f-4f5d-a527-cd157e00b15b" d="M68.23,28.29V25.88c0-.15,0-.19-.15-.19H58.17c-.15,0-.15,0-.15.19v2.42c0,.11,0,.13.13.13h3.3v9.8c0,.19,0,.17.19.17h3.09c.15,0,.17,0,.17-.17v-9.8h3.2c.11,0,.13,0,.13-.13"/><path class="7f86f087-df3f-4f5d-a527-cd157e00b15b" d="M71.43,28.65a4.71,4.71,0,0,0-5,5,4.73,4.73,0,0,0,5,5.1,5.49,5.49,0,0,0,3.34-1.11c.15-.13.21-.26.1-.43-.38-.59-.91-1.34-1.3-1.89-.1-.13-.21-.17-.27-.09a2.41,2.41,0,0,1-1.81.94,1.73,1.73,0,0,1-1.92-1.66H75.2c.28,0,.34,0,.38-.23A5.07,5.07,0,0,0,75.7,33a4.13,4.13,0,0,0-4.27-4.3M69.56,32.8a1.61,1.61,0,0,1,1.58-1.6,1.54,1.54,0,0,1,1.6,1.6Z"/><path class="7f86f087-df3f-4f5d-a527-cd157e00b15b" d="M85.62,35.68l-2.36-1c-.17-.07-.22,0-.28.09a1.77,1.77,0,0,1-1.61.92,1.87,1.87,0,0,1-1.95-1.95A1.94,1.94,0,0,1,83,32.64c0,.09.07.13.15.11l2.45-1c.13-.06.17-.13.11-.28a4.39,4.39,0,0,0-4.42-2.79,4.86,4.86,0,0,0-5,5.11,4.71,4.71,0,0,0,5,4.95A4.53,4.53,0,0,0,85.74,36a.23.23,0,0,0-.11-.32"/><path class="7f86f087-df3f-4f5d-a527-cd157e00b15b" d="M102.31,28.65a2.88,2.88,0,0,0-2.92,1.8V29.23c0-.19-.07-.3-.21-.3H96.43c-.13,0-.13,0-.13.22v9c0,.26,0,.26.15.26h2.9c.11,0,.13,0,.13-.21V32.27a1.39,1.39,0,0,1,1.37-.9A1.13,1.13,0,0,1,102,32.6v5.58c0,.21,0,.21.17.21H105c.15,0,.19,0,.19-.28V31.74c0-2-1-3.09-2.9-3.09"/><path class="7f86f087-df3f-4f5d-a527-cd157e00b15b" d="M111,28.65a4.84,4.84,0,0,0-5,5,5,5,0,1,0,10,0,4.81,4.81,0,0,0-5-5m0,7.1a2,2,0,0,1-1.93-2.06,1.92,1.92,0,0,1,1.91-2,1.88,1.88,0,0,1,1.87,2A1.91,1.91,0,0,1,111,35.75"/><path class="7f86f087-df3f-4f5d-a527-cd157e00b15b" d="M125.19,28.93H122c-.09,0-.15.08-.19.19l-1.48,3.95-1.55-4c0-.13-.11-.13-.21-.13h-3.24c-.19,0-.24,0-.08.3,1.84,3.71,3.09,6.18,4.68,9.29a.37.37,0,0,0,.32.21.3.3,0,0,0,.28-.19c1.65-3.24,2.75-5.49,4.68-9.35.11-.26.09-.26-.07-.26"/><path class="7f86f087-df3f-4f5d-a527-cd157e00b15b" d="M134.49,28.93H131.6c-.11,0-.15.06-.15.23V30.3a2.71,2.71,0,0,0-2.53-1.48,4.54,4.54,0,0,0-4.37,4.83c0,3.07,1.91,4.87,4.42,4.87A2.67,2.67,0,0,0,131.62,37v1.18c0,.09.06.17.19.17h2.66c.09,0,.15-.06.15-.26v-9c0-.09,0-.17-.13-.17m-4.91,6.74a1.88,1.88,0,0,1-1.91-1.93,1.85,1.85,0,0,1,1.91-2,1.84,1.84,0,0,1,1.87,2,1.87,1.87,0,0,1-1.87,2"/><path class="7f86f087-df3f-4f5d-a527-cd157e00b15b" d="M150.77,28.65a4.84,4.84,0,0,0-5,5,5,5,0,1,0,10,0,4.81,4.81,0,0,0-5-5m0,7.1a2,2,0,0,1-1.93-2.06,1.92,1.92,0,0,1,1.91-2,1.88,1.88,0,0,1,1.87,2,1.91,1.91,0,0,1-1.85,2.06"/><path class="7f86f087-df3f-4f5d-a527-cd157e00b15b" d="M162.59,28.65a2.89,2.89,0,0,0-2.92,1.8V29.23c0-.19-.08-.3-.21-.3h-2.75c-.13,0-.13,0-.13.22v9c0,.26,0,.26.15.26h2.9c.11,0,.13,0,.13-.21V32.27a1.39,1.39,0,0,1,1.37-.9,1.13,1.13,0,0,1,1.18,1.24v5.58c0,.21,0,.21.17.21h2.83c.15,0,.19,0,.19-.28V31.74c0-2-1-3.09-2.9-3.09"/><path class="7f86f087-df3f-4f5d-a527-cd157e00b15b" d="M92.33,28.65a2.83,2.83,0,0,0-2.83,1.76V25.93a.24.24,0,0,0-.3-.23H86.47c-.13,0-.15.07-.15.26V38.13c0,.26,0,.26.15.26h2.9c.11,0,.13,0,.13-.21V32.27a1.39,1.39,0,0,1,1.37-.9,1.13,1.13,0,0,1,1.18,1.24v5.58c0,.21,0,.21.17.21H95c.15,0,.19,0,.19-.28V31.74c0-2-1-3.09-2.9-3.09"/><path class="fcc67d94-c35e-4108-922c-ecd94059c777" d="M63.35,44.31a1,1,0,1,1-1-.92,1,1,0,0,1,1,.92"/><path class="fcc67d94-c35e-4108-922c-ecd94059c777" d="M84.77,49.68c.18-2.28-.67-3.79-2.63-3.79a3.06,3.06,0,0,0-3.08,3.18,3,3,0,0,0,3.08,3.18,5.06,5.06,0,0,0,2.34-.39l-.22-1.28a6.41,6.41,0,0,1-1.78.25c-.9,0-1.65-.47-1.62-1.17Zm-3.94-1.3A1.27,1.27,0,0,1,82,47.13c.71,0,1.07.48,1.09,1.24Z"/><path class="fcc67d94-c35e-4108-922c-ecd94059c777" d="M106.2,45.88a2.37,2.37,0,0,0-1.84,1h0l-.08-.83h-1.61v6.06h1.86V48.4a1.14,1.14,0,0,1,1.14-1c.68,0,.94.66.94,1.33v3.38h1.87V48.37a2.2,2.2,0,0,0-2.28-2.49"/><path class="fcc67d94-c35e-4108-922c-ecd94059c777" d="M76.23,43.28v3.33a2,2,0,0,0-1.68-.74,2.91,2.91,0,0,0-2.69,3.18c0,1.76,1,3.17,2.53,3.17a2.13,2.13,0,0,0,1.83-.84l.13.7H78.1V43.28ZM75,50.74c-.7,0-1.27-.77-1.27-1.72s.57-1.72,1.27-1.72,1.21.45,1.21,1.72-.51,1.72-1.21,1.72"/><path class="7f86f087-df3f-4f5d-a527-cd157e00b15b" d="M90.22,49.8h0a.19.19,0,1,1,.23-.16.19.19,0,0,1-.23.16m0-.21v0Zm3.23.05a.2.2,0,1,1,.06,0h-.06m0-.23v0Zm.79,0a.19.19,0,0,1-.07-.38h0a.19.19,0,1,1,.14.36h-.07m.75-.32a.2.2,0,1,1,.09,0h0l-.08,0m0-.23,0,0Zm.75-.14a.2.2,0,1,1,.1,0h0l-.09,0m0-.23,0,0ZM85.42,46.84a.2.2,0,0,1-.14-.06h0a.19.19,0,0,1,.28-.27l-.14.13.14-.13a.19.19,0,0,1,0,.27.2.2,0,0,1-.14.05m-.55-.61a.2.2,0,0,1-.13-.34.19.19,0,0,1,.27,0h0a.19.19,0,0,1,0,.27.19.19,0,0,1-.13,0m14.78-.46a.19.19,0,0,1-.14-.06.2.2,0,0,1,0-.27l.13.14-.13-.14a.19.19,0,0,1,.27,0,.2.2,0,0,1,0,.27h0a.19.19,0,0,1-.13.05m-15.33-.15a.19.19,0,1,1,.14-.33h0a.2.2,0,0,1-.14.33m15.91-.42a.19.19,0,0,1-.14-.33h0a.19.19,0,1,1,.27.27.2.2,0,0,1-.14.06M83.74,45a.19.19,0,0,1-.13-.05h0a.19.19,0,1,1,.27-.28l-.13.14.13-.14a.19.19,0,0,1-.13.34m17.06-.44a.19.19,0,0,1-.13,0,.19.19,0,0,1,0-.27h0a.19.19,0,0,1,.29.26h0a.19.19,0,0,1-.14.06m-17.67-.1a.19.19,0,1,1,.12-.35h0a.19.19,0,0,1-.12.34M82.48,44a.19.19,0,0,1-.11,0,.19.19,0,1,1,.22-.32h0a.19.19,0,0,1-.11.35m-.69-.44-.1,0a.2.2,0,0,1-.07-.27.19.19,0,0,1,.26-.07h0a.19.19,0,0,1-.1.36m-.72-.38-.08,0a.19.19,0,0,1,.16-.35h0a.19.19,0,0,1-.08.37m-6.35-.11a.19.19,0,0,1-.07-.37l.07.18-.07-.18a.19.19,0,0,1,.15.36h-.08m5.6-.2h-.07a.19.19,0,1,1,.13-.37l-.07.18.07-.18a.19.19,0,0,1-.06.38m-4.83-.08a.19.19,0,0,1-.06-.38l.06.18-.06-.19a.19.19,0,0,1,.12.37h-.06m4-.16h0a.19.19,0,0,1,.09-.38l0,.19,0-.19a.19.19,0,0,1,0,.38m-3.25,0a.19.19,0,0,1,0-.38h0a.19.19,0,1,1,.07.38h0m2.45-.1h0a.19.19,0,0,1,0-.39h0a.19.19,0,0,1,0,.39m-1.64,0a.19.19,0,0,1,0-.39h0a.19.19,0,1,1,0,.39h0m.82,0h0a.19.19,0,1,1,0-.39h0a.19.19,0,0,1,0,.39"/><path class="fcc67d94-c35e-4108-922c-ecd94059c777" d="M101.66,49.66c.18-2.28-.67-3.79-2.63-3.79a3.06,3.06,0,0,0-3.08,3.18A3,3,0,0,0,99,52.24a5.06,5.06,0,0,0,2.34-.39l-.22-1.28a6.41,6.41,0,0,1-1.78.25c-.9,0-1.65-.47-1.62-1.17Zm-5.14-1.41a.19.19,0,0,1-.1,0,.19.19,0,0,1-.17-.09.19.19,0,0,1,.06-.27h0a.19.19,0,0,1,.2.33M98.91,46h0a.19.19,0,0,1,.26.29.2.2,0,0,1-.13,0,.19.19,0,0,1-.13-.34m-.62.53h0a.19.19,0,0,1,.24.3.2.2,0,0,1-.12,0,.19.19,0,0,1-.13-.34M97.22,47.8h0a.19.19,0,0,1-.11,0,.19.19,0,0,1-.11-.36h0a.19.19,0,0,1,.22.32m.4-.52a.19.19,0,0,1,0-.27h0a.19.19,0,1,1,.23.31.19.19,0,0,1-.27,0m.11,1.08a1.27,1.27,0,0,1,1.16-1.25c.71,0,1.07.48,1.09,1.24Z"/><g class="9b592a83-e74a-4bc6-9a2c-b420b94b0e9d"><rect class="fb4e80cf-2c4b-4ed9-a273-b61245f4956e" x="92.58" y="49.43" width="0.28" height="0.39"/></g><path class="fcc67d94-c35e-4108-922c-ecd94059c777" d="M144.76,25.69H141.9c-.13,0-.13.13-.13.24v1.75c0,.11,0,.24.15.24h2.87c.13,0,.17,0,.17-.21V25.93c0-.23,0-.24-.19-.24"/><path class="7f86f087-df3f-4f5d-a527-cd157e00b15b" d="M104.15,41.7l.15-.11h.06a.32.32,0,1,0-.32-.32.31.31,0,0,0,0,.15l-.32.26a5.92,5.92,0,0,1-2.57-1.83l-.39.34a4.36,4.36,0,0,0,2.33,2l-1,.81,0-.53c-.16,0-.32.26-.34.59h0l-1.17-.29-.24.21,1.18.51-.2.16.16.2.31-.25a3.26,3.26,0,0,0,1,.17,1.6,1.6,0,0,0,.43-.08l.14-.28a1.41,1.41,0,0,1-.41,0,.93.93,0,0,1-.67-.23l1.21-1,.33,0A2.38,2.38,0,0,0,106,40.91a2.82,2.82,0,0,1-1.83.78"/><rect class="fcc67d94-c35e-4108-922c-ecd94059c777" x="61.42" y="46.03" width="1.86" height="6.06"/><path class="fcc67d94-c35e-4108-922c-ecd94059c777" d="M67.94,45.9A1.72,1.72,0,0,0,66.32,47h0l-.15-1H64.55v6.06h1.86V49A1.55,1.55,0,0,1,68,47.61l.24,0v-1.7a1.72,1.72,0,0,0-.35,0"/><path class="fcc67d94-c35e-4108-922c-ecd94059c777" d="M70.25,52.29l-.2,0c-.4-.06-.61-.35-.61-.84,0,0,0-.08,0-.13a4.41,4.41,0,0,0-.08-1.08,8.61,8.61,0,0,1-.19-1.43l0-.44c0-.37-.07-1.15-.06-1.42a2.69,2.69,0,0,0-.34-1.13,4.21,4.21,0,0,1-.17-.39,8.31,8.31,0,0,1-.11-1.86c0-.1,0-.19,0-.27A1.09,1.09,0,0,1,69,42.4a1,1,0,0,0,.22-.19c.06-.1,0-.2,0-.39a2.72,2.72,0,0,1-.11-.55.72.72,0,0,1,.19-.56.91.91,0,0,1,.58-.29.74.74,0,0,1,.61.29,1.13,1.13,0,0,1,.16.86v.08l0,.1c0,.18-.05.31.21.39a.94.94,0,0,1,.74.63l0,.1a5,5,0,0,1,.21,2.05,3.73,3.73,0,0,1-.41,1.38l-.14.3a.08.08,0,1,1-.14-.07l.14-.3a3.59,3.59,0,0,0,.39-1.33,4.79,4.79,0,0,0-.2-2l0-.1c-.07-.25-.27-.41-.63-.52a.42.42,0,0,1-.31-.56v-.17a1,1,0,0,0-.13-.75.57.57,0,0,0-.48-.22.76.76,0,0,0-.46.24.56.56,0,0,0-.15.44,2.53,2.53,0,0,0,.11.52.6.6,0,0,1,0,.52,1,1,0,0,1-.26.24,1,1,0,0,0-.49.76c0,.08,0,.18,0,.27a8.53,8.53,0,0,0,.1,1.8,4.08,4.08,0,0,0,.16.38,2.81,2.81,0,0,1,.35,1.2c0,.26,0,1,.06,1.4l0,.45a8.6,8.6,0,0,0,.18,1.4,4.44,4.44,0,0,1,.08,1.12s0,.09,0,.13c0,.29.05.62.48.69s.54-.11.54-.11a.08.08,0,0,1,.1,0,.08.08,0,0,1,0,.1s-.11.21-.5.21"/><path class="7f86f087-df3f-4f5d-a527-cd157e00b15b" d="M70.28,43.44a.55.55,0,0,1,.52.26,4.61,4.61,0,0,1,.27,1,2.39,2.39,0,0,0,.38-.1,4.6,4.6,0,0,0,1-.65l.51-.39a7.19,7.19,0,0,1,.67-.43c.06,0,.12-.09.14-.06s-.2.17-.2.18a.76.76,0,0,0,.17-.08c.06,0,.08,0,.09,0s0,0-.08.08-.15.08-.15.09,0,0,.13,0,.1,0,.1,0,0,0-.1.08a.45.45,0,0,0-.13.09s.05,0,.1,0,.11,0,.11,0-.17.11-.24.14l-.31.12-.07,0,.05.13-.54.46c-.19.16-1,.91-1.25,1.15s-.06.66-.06,1,.06.86,0,1.11l-.12,0a1.51,1.51,0,0,1,0,.48c0,1-.58,1.76-.57,2.75,0,0,0,.13,0,.13.27.18.62.14.62.41,0,.06-.12.06-.21.06a3.34,3.34,0,0,0-.49,0c0,.33.49.34.49.65,0,.09-.2.1-.33.1s-.71-.22-.71-.5a.77.77,0,0,1,.05-.33l-.11-.16s0-.11,0-.26a2.22,2.22,0,0,0,0-.41c0-.16,0-.43,0-.73a2.28,2.28,0,0,0,0-.85,5,5,0,0,1-.4-2c0-.16,0-.37,0-.37s-.1-.05-.13.56a2.77,2.77,0,0,0,0,.85,1.13,1.13,0,0,1,0,.28s.06.12,0,.19-.26,0-.36-.31a2.19,2.19,0,0,1,0-.58c0-.36,0-.75,0-.93a3.21,3.21,0,0,1,.45-1.54c.24-.32.13-.67.12-1s.18-.67.48-.67"/><path class="fcc67d94-c35e-4108-922c-ecd94059c777" d="M89.82,49.38a1.83,1.83,0,0,0-.82-.71l-.39-.17c-.13-.06-.69-.25-.92-.38a.64.64,0,0,1-.25-.23.53.53,0,0,1-.07-.26c0-.31.29-.47.75-.47a3.48,3.48,0,0,1,1.33.31l.28-1.27a5.61,5.61,0,0,0-1.8-.31,2.18,2.18,0,0,0-2.36,1.89,1.74,1.74,0,0,0,.21.85,1.91,1.91,0,0,0,.82.73,2.81,2.81,0,0,0,.44.17,9.37,9.37,0,0,1,.88.38.65.65,0,0,1,.25.23.57.57,0,0,1,.07.27c0,.32-.29.51-.75.51a4.45,4.45,0,0,1-1.72-.43l-.28,1.33a5.64,5.64,0,0,0,2.06.39c1.46,0,2.49-.84,2.49-2a1.87,1.87,0,0,0-.21-.88m-3.7-2a.19.19,0,0,1-.14.06.2.2,0,1,1,.13-.34h0a.19.19,0,0,1,0,.27m.62.53a.19.19,0,0,1-.27,0h0a.19.19,0,1,1,.25-.3h0a.19.19,0,0,1,0,.27m.66.49a.19.19,0,0,1-.16.08.2.2,0,0,1-.11,0,.19.19,0,0,1,.22-.32h0a.19.19,0,0,1,0,.27m.69.43a.19.19,0,0,1-.27.07.19.19,0,0,1,.2-.33h0a.19.19,0,0,1,.07.27m.73.36a.2.2,0,0,1-.17.11l-.08,0a.19.19,0,0,1,.16-.35h0a.19.19,0,0,1,.09.26m.77.27a.19.19,0,0,1-.19.14h-.07a.19.19,0,1,1,.25-.13"/><path class="fcc67d94-c35e-4108-922c-ecd94059c777" d="M94.31,50.74a1.56,1.56,0,0,1-1.62-.92h0a.19.19,0,0,1-.19-.16.2.2,0,0,1,.12-.21,2.48,2.48,0,0,1,0-.4,1.57,1.57,0,0,1,1.72-1.71,2.5,2.5,0,0,1,1,.17l.31-1.4a4.5,4.5,0,0,0-1.38-.21c-2.23,0-3.53,1.32-3.53,3.2s1,3.13,3.4,3.13A4.87,4.87,0,0,0,95.52,52l-.21-1.4a2.53,2.53,0,0,1-1,.18"/><path class="fcc67d94-c35e-4108-922c-ecd94059c777" d="M113.1,50.66h0a2.5,2.5,0,0,1-.54.05.68.68,0,0,1-.73-.62V47.4h1.35V46h-1.35V44.39l-1.86.49V46h-.8V47.4h.8v2.81a1.85,1.85,0,0,0,1.91,2,3.74,3.74,0,0,0,1.19-.17l0,0Z"/><path class="7f86f087-df3f-4f5d-a527-cd157e00b15b" d="M140.7,36.12c0-.21-.13-.28-.36-.22-1,.21-1.55-.21-1.55-1V31.35h1.76c.15,0,.21-.08.21-.26v-2c0-.09-.06-.15-.19-.15h-1.78V26.09a1.11,1.11,0,0,0,0-.16.24.24,0,0,0-.29-.23h-2.69c-.13,0-.15.07-.15.26v8.73c0,1.89.07,4,3.24,4a4.39,4.39,0,0,0,1.91-.52.25.25,0,0,0,.17-.28c0-.26-.24-1.57-.28-1.78"/><path class="7f86f087-df3f-4f5d-a527-cd157e00b15b" d="M144.76,28.93H141.9c-.13,0-.13,0-.13.23v9c0,.26,0,.26.15.26h2.87c.13,0,.17,0,.17-.21v-9c0-.23,0-.23-.19-.23"/></g></g></svg>